<mxfile host="app.diagrams.net" agent="Mozilla/5.0 (Windows NT 10.0; Win64; x64) AppleWebKit/537.36 (KHTML, like Gecko) Chrome/133.0.0.0 Safari/537.36" version="26.0.14">
  <diagram id="C5RBs43oDa-KdzZeNtuy" name="Page-1">
    <mxGraphModel dx="2200" dy="1170" grid="1" gridSize="10" guides="1" tooltips="1" connect="1" arrows="1" fold="1" page="1" pageScale="1" pageWidth="827" pageHeight="1169" math="0" shadow="0">
      <root>
        <mxCell id="WIyWlLk6GJQsqaUBKTNV-0" />
        <mxCell id="WIyWlLk6GJQsqaUBKTNV-1" parent="WIyWlLk6GJQsqaUBKTNV-0" />
        <mxCell id="4ye4V1tKf7mEJkrVr7zk-3" value="" style="edgeStyle=orthogonalEdgeStyle;rounded=0;orthogonalLoop=1;jettySize=auto;html=1;" parent="WIyWlLk6GJQsqaUBKTNV-1" source="4ye4V1tKf7mEJkrVr7zk-1" edge="1">
          <mxGeometry relative="1" as="geometry">
            <mxPoint x="410" y="430" as="targetPoint" />
          </mxGeometry>
        </mxCell>
        <mxCell id="4ye4V1tKf7mEJkrVr7zk-1" value="Tegn UI" style="rounded=1;whiteSpace=wrap;html=1;" parent="WIyWlLk6GJQsqaUBKTNV-1" vertex="1">
          <mxGeometry x="350" y="290" width="120" height="60" as="geometry" />
        </mxCell>
        <mxCell id="z7gTDf9ey_LMjP9v-pDg-2" value="" style="edgeStyle=orthogonalEdgeStyle;rounded=0;orthogonalLoop=1;jettySize=auto;html=1;" edge="1" parent="WIyWlLk6GJQsqaUBKTNV-1" source="4ye4V1tKf7mEJkrVr7zk-4" target="z7gTDf9ey_LMjP9v-pDg-1">
          <mxGeometry relative="1" as="geometry" />
        </mxCell>
        <mxCell id="4ye4V1tKf7mEJkrVr7zk-4" value="Load sound libary" style="rounded=0;whiteSpace=wrap;html=1;" parent="WIyWlLk6GJQsqaUBKTNV-1" vertex="1">
          <mxGeometry x="354" y="430" width="120" height="60" as="geometry" />
        </mxCell>
        <mxCell id="z7gTDf9ey_LMjP9v-pDg-5" value="" style="edgeStyle=orthogonalEdgeStyle;rounded=0;orthogonalLoop=1;jettySize=auto;html=1;" edge="1" parent="WIyWlLk6GJQsqaUBKTNV-1" source="4ye4V1tKf7mEJkrVr7zk-5" target="z7gTDf9ey_LMjP9v-pDg-4">
          <mxGeometry relative="1" as="geometry" />
        </mxCell>
        <mxCell id="z7gTDf9ey_LMjP9v-pDg-7" value="" style="edgeStyle=orthogonalEdgeStyle;rounded=0;orthogonalLoop=1;jettySize=auto;html=1;" edge="1" parent="WIyWlLk6GJQsqaUBKTNV-1" source="4ye4V1tKf7mEJkrVr7zk-5" target="z7gTDf9ey_LMjP9v-pDg-6">
          <mxGeometry relative="1" as="geometry" />
        </mxCell>
        <mxCell id="4ye4V1tKf7mEJkrVr7zk-5" value="Skriv din morse code eller tekst til oversæt" style="shape=parallelogram;perimeter=parallelogramPerimeter;whiteSpace=wrap;html=1;fixedSize=1;rounded=0;" parent="WIyWlLk6GJQsqaUBKTNV-1" vertex="1">
          <mxGeometry x="354" y="620" width="120" height="60" as="geometry" />
        </mxCell>
        <mxCell id="z7gTDf9ey_LMjP9v-pDg-3" value="" style="edgeStyle=orthogonalEdgeStyle;rounded=0;orthogonalLoop=1;jettySize=auto;html=1;" edge="1" parent="WIyWlLk6GJQsqaUBKTNV-1" source="z7gTDf9ey_LMjP9v-pDg-1" target="4ye4V1tKf7mEJkrVr7zk-5">
          <mxGeometry relative="1" as="geometry" />
        </mxCell>
        <mxCell id="z7gTDf9ey_LMjP9v-pDg-1" value="Load Morse Code Libary" style="rounded=0;whiteSpace=wrap;html=1;" vertex="1" parent="WIyWlLk6GJQsqaUBKTNV-1">
          <mxGeometry x="354" y="520" width="120" height="60" as="geometry" />
        </mxCell>
        <mxCell id="z7gTDf9ey_LMjP9v-pDg-4" value="Oversættet version af morse code eller tekst" style="whiteSpace=wrap;html=1;rounded=0;" vertex="1" parent="WIyWlLk6GJQsqaUBKTNV-1">
          <mxGeometry x="354" y="760" width="120" height="60" as="geometry" />
        </mxCell>
        <mxCell id="z7gTDf9ey_LMjP9v-pDg-9" value="" style="edgeStyle=orthogonalEdgeStyle;rounded=0;orthogonalLoop=1;jettySize=auto;html=1;" edge="1" parent="WIyWlLk6GJQsqaUBKTNV-1" source="z7gTDf9ey_LMjP9v-pDg-6" target="z7gTDf9ey_LMjP9v-pDg-8">
          <mxGeometry relative="1" as="geometry" />
        </mxCell>
        <mxCell id="z7gTDf9ey_LMjP9v-pDg-6" value="Sound on/off" style="shape=parallelogram;perimeter=parallelogramPerimeter;whiteSpace=wrap;html=1;fixedSize=1;rounded=0;" vertex="1" parent="WIyWlLk6GJQsqaUBKTNV-1">
          <mxGeometry x="154" y="620" width="120" height="60" as="geometry" />
        </mxCell>
        <mxCell id="z7gTDf9ey_LMjP9v-pDg-8" value="Oversættet version af morse code eller teskt men med lyd" style="whiteSpace=wrap;html=1;rounded=0;" vertex="1" parent="WIyWlLk6GJQsqaUBKTNV-1">
          <mxGeometry x="154" y="760" width="120" height="60" as="geometry" />
        </mxCell>
      </root>
    </mxGraphModel>
  </diagram>
</mxfile>
